<mxfile host="app.diagrams.net" modified="2024-05-05T10:48:18.417Z" agent="Mozilla/5.0 (Windows NT 10.0; Win64; x64) AppleWebKit/537.36 (KHTML, like Gecko) Chrome/124.0.0.0 Safari/537.36" etag="PcXphSHmICqyV2DV70Kq" version="24.3.1" type="device">
  <diagram name="Страница — 1" id="IFkyH43RNqZPrcsmITEW">
    <mxGraphModel dx="847" dy="1830" grid="1" gridSize="10" guides="1" tooltips="1" connect="1" arrows="1" fold="1" page="1" pageScale="1" pageWidth="827" pageHeight="1169" math="0" shadow="0">
      <root>
        <mxCell id="0" />
        <mxCell id="1" parent="0" />
        <mxCell id="i1rfH02juTvmAjg2zNDB-4" value="" style="rounded=0;whiteSpace=wrap;html=1;" vertex="1" parent="1">
          <mxGeometry x="270" y="-80" width="520" height="500" as="geometry" />
        </mxCell>
        <mxCell id="T0sPZXUKPH5hz8j1DCq6-1" value="" style="verticalAlign=top;align=left;spacingTop=8;spacingLeft=2;spacingRight=12;shape=cube;size=10;direction=south;fontStyle=4;html=1;whiteSpace=wrap;fontFamily=Times New Roman;" parent="1" vertex="1">
          <mxGeometry x="280" y="190" width="200" height="220" as="geometry" />
        </mxCell>
        <mxCell id="T0sPZXUKPH5hz8j1DCq6-3" value="&amp;lt;&amp;lt;device&amp;gt;&amp;gt;&lt;div&gt;WebServer&lt;/div&gt;" style="text;html=1;align=center;verticalAlign=middle;whiteSpace=wrap;rounded=0;fontFamily=Times New Roman;" parent="1" vertex="1">
          <mxGeometry x="335" y="200" width="80" height="40" as="geometry" />
        </mxCell>
        <mxCell id="T0sPZXUKPH5hz8j1DCq6-4" value="" style="verticalAlign=top;align=left;spacingTop=8;spacingLeft=2;spacingRight=12;shape=cube;size=10;direction=south;fontStyle=4;html=1;whiteSpace=wrap;fontFamily=Times New Roman;" parent="1" vertex="1">
          <mxGeometry x="280" y="-70" width="200" height="160" as="geometry" />
        </mxCell>
        <mxCell id="T0sPZXUKPH5hz8j1DCq6-5" value="&amp;lt;&amp;lt;device&amp;gt;&amp;gt;&lt;div&gt;Database server&lt;/div&gt;" style="text;html=1;align=center;verticalAlign=middle;whiteSpace=wrap;rounded=0;fontFamily=Times New Roman;" parent="1" vertex="1">
          <mxGeometry x="315" y="-40" width="120" height="40" as="geometry" />
        </mxCell>
        <mxCell id="T0sPZXUKPH5hz8j1DCq6-6" value="PostgreSQL" style="shape=module;align=left;spacingLeft=20;align=center;verticalAlign=top;whiteSpace=wrap;html=1;fontFamily=Times New Roman;spacingTop=11;" parent="1" vertex="1">
          <mxGeometry x="325" y="20" width="100" height="50" as="geometry" />
        </mxCell>
        <mxCell id="T0sPZXUKPH5hz8j1DCq6-7" value="" style="verticalAlign=top;align=left;spacingTop=8;spacingLeft=2;spacingRight=12;shape=cube;size=10;direction=south;fontStyle=4;html=1;whiteSpace=wrap;fontFamily=Times New Roman;" parent="1" vertex="1">
          <mxGeometry x="290" y="250" width="170" height="150" as="geometry" />
        </mxCell>
        <mxCell id="T0sPZXUKPH5hz8j1DCq6-8" value="&amp;lt;&amp;lt;device&amp;gt;&amp;gt;&lt;div&gt;Backend server&lt;/div&gt;" style="text;html=1;align=center;verticalAlign=middle;whiteSpace=wrap;rounded=0;fontFamily=Times New Roman;" parent="1" vertex="1">
          <mxGeometry x="315" y="270" width="120" height="40" as="geometry" />
        </mxCell>
        <mxCell id="T0sPZXUKPH5hz8j1DCq6-9" value="h3&lt;div&gt;Sequelize&lt;/div&gt;" style="shape=module;align=left;spacingLeft=20;align=center;verticalAlign=top;whiteSpace=wrap;html=1;fontFamily=Times New Roman;spacingTop=4;" parent="1" vertex="1">
          <mxGeometry x="325" y="330" width="100" height="50" as="geometry" />
        </mxCell>
        <mxCell id="T0sPZXUKPH5hz8j1DCq6-10" value="" style="verticalAlign=top;align=left;spacingTop=8;spacingLeft=2;spacingRight=12;shape=cube;size=10;direction=south;fontStyle=4;html=1;whiteSpace=wrap;fontFamily=Times New Roman;" parent="1" vertex="1">
          <mxGeometry x="580" y="190" width="200" height="220" as="geometry" />
        </mxCell>
        <mxCell id="T0sPZXUKPH5hz8j1DCq6-11" value="&amp;lt;&amp;lt;device&amp;gt;&amp;gt;&lt;div&gt;Client&lt;/div&gt;" style="text;html=1;align=center;verticalAlign=middle;whiteSpace=wrap;rounded=0;fontFamily=Times New Roman;" parent="1" vertex="1">
          <mxGeometry x="635" y="200" width="80" height="40" as="geometry" />
        </mxCell>
        <mxCell id="T0sPZXUKPH5hz8j1DCq6-12" value="" style="verticalAlign=top;align=left;spacingTop=8;spacingLeft=2;spacingRight=12;shape=cube;size=10;direction=south;fontStyle=4;html=1;whiteSpace=wrap;fontFamily=Times New Roman;" parent="1" vertex="1">
          <mxGeometry x="590" y="250" width="170" height="150" as="geometry" />
        </mxCell>
        <mxCell id="T0sPZXUKPH5hz8j1DCq6-13" value="&amp;lt;&amp;lt;device&amp;gt;&amp;gt;&lt;div&gt;Browser&lt;/div&gt;" style="text;html=1;align=center;verticalAlign=middle;whiteSpace=wrap;rounded=0;fontFamily=Times New Roman;" parent="1" vertex="1">
          <mxGeometry x="615" y="270" width="120" height="40" as="geometry" />
        </mxCell>
        <mxCell id="T0sPZXUKPH5hz8j1DCq6-14" value="React" style="shape=module;align=left;spacingLeft=20;align=center;verticalAlign=top;whiteSpace=wrap;html=1;fontFamily=Times New Roman;spacingTop=11;" parent="1" vertex="1">
          <mxGeometry x="625" y="330" width="100" height="50" as="geometry" />
        </mxCell>
        <mxCell id="T0sPZXUKPH5hz8j1DCq6-18" value="" style="endArrow=classic;startArrow=classic;html=1;rounded=0;exitX=0.411;exitY=-0.003;exitDx=0;exitDy=0;exitPerimeter=0;entryX=0.409;entryY=1.003;entryDx=0;entryDy=0;entryPerimeter=0;fontFamily=Times New Roman;" parent="1" source="T0sPZXUKPH5hz8j1DCq6-1" target="T0sPZXUKPH5hz8j1DCq6-10" edge="1">
          <mxGeometry width="50" height="50" relative="1" as="geometry">
            <mxPoint x="520" y="370" as="sourcePoint" />
            <mxPoint x="570" y="320" as="targetPoint" />
          </mxGeometry>
        </mxCell>
        <mxCell id="T0sPZXUKPH5hz8j1DCq6-19" value="" style="endArrow=classic;startArrow=classic;html=1;rounded=0;exitX=0.411;exitY=-0.003;exitDx=0;exitDy=0;exitPerimeter=0;entryX=0.409;entryY=1.003;entryDx=0;entryDy=0;entryPerimeter=0;fontFamily=Times New Roman;" parent="1" edge="1">
          <mxGeometry width="50" height="50" relative="1" as="geometry">
            <mxPoint x="482" y="310" as="sourcePoint" />
            <mxPoint x="580" y="310" as="targetPoint" />
          </mxGeometry>
        </mxCell>
        <mxCell id="T0sPZXUKPH5hz8j1DCq6-20" value="HTTPS" style="text;html=1;align=center;verticalAlign=middle;whiteSpace=wrap;rounded=0;fontFamily=Times New Roman;" parent="1" vertex="1">
          <mxGeometry x="500" y="250" width="60" height="30" as="geometry" />
        </mxCell>
        <mxCell id="T0sPZXUKPH5hz8j1DCq6-21" value="WebSocket" style="text;html=1;align=center;verticalAlign=middle;whiteSpace=wrap;rounded=0;fontFamily=Times New Roman;" parent="1" vertex="1">
          <mxGeometry x="500" y="280" width="60" height="30" as="geometry" />
        </mxCell>
        <mxCell id="i1rfH02juTvmAjg2zNDB-1" value="TCP" style="text;html=1;align=center;verticalAlign=middle;whiteSpace=wrap;rounded=0;fontFamily=Times New Roman;" vertex="1" parent="1">
          <mxGeometry x="375" y="120" width="60" height="30" as="geometry" />
        </mxCell>
        <mxCell id="i1rfH02juTvmAjg2zNDB-2" value="" style="endArrow=classic;startArrow=classic;html=1;rounded=0;exitX=0;exitY=0;exitDx=0;exitDy=95;exitPerimeter=0;entryX=1.015;entryY=0.48;entryDx=0;entryDy=0;entryPerimeter=0;fontFamily=Times New Roman;" edge="1" parent="1" source="T0sPZXUKPH5hz8j1DCq6-1" target="T0sPZXUKPH5hz8j1DCq6-4">
          <mxGeometry width="50" height="50" relative="1" as="geometry">
            <mxPoint x="491" y="290" as="sourcePoint" />
            <mxPoint x="589" y="290" as="targetPoint" />
          </mxGeometry>
        </mxCell>
      </root>
    </mxGraphModel>
  </diagram>
</mxfile>
